# Blender 4.1.1
# www.blender.org
mtllib enemy.mtl
o Cube
v -0.525817 -0.391972 -0.463374
v 0.525755 -0.142546 -0.463374
v -0.525817 -0.391972 0.588178
v 0.525755 -0.142546 0.588178
v 0.525736 -0.392052 -0.463374
v -0.525798 -0.142465 0.588178
v 0.525736 -0.392052 0.588178
v -0.525798 -0.142465 -0.463374
vn -0.0001 -1.0000 -0.0000
vn -0.0000 -0.0000 1.0000
vn 1.0000 -0.0001 -0.0000
vn 0.0001 1.0000 -0.0000
vn -1.0000 0.0001 -0.0000
vn -0.0000 -0.0000 -1.0000
vt 0.500000 0.500000
vt 0.749957 0.500000
vt 0.749957 0.749957
vt 0.500000 0.749957
vt 0.250043 0.749957
vt 0.500000 0.999913
vt 0.250043 0.999913
vt 0.250043 0.000087
vt 0.500000 0.000087
vt 0.500000 0.250043
vt 0.250043 0.250043
vt 0.000087 0.500000
vt 0.250043 0.500000
vt 0.000087 0.749957
s 0
usemtl Material
f 1/1/1 5/2/1 7/3/1 3/4/1
f 6/5/2 3/4/2 7/6/2 4/7/2
f 4/8/3 7/9/3 5/10/3 2/11/3
f 2/12/4 8/13/4 6/5/4 4/14/4
f 8/13/5 1/1/5 3/4/5 6/5/5
f 2/11/6 5/10/6 1/1/6 8/13/6
o 立方体
v 0.128428 -0.328886 -0.070606
v 0.128428 -0.328886 0.218779
v -0.128428 -0.328886 -0.070606
v -0.128428 -0.328886 0.218779
v 0.128428 0.940823 0.218779
v 0.128428 0.940823 -0.070606
v -0.128428 0.940823 0.218779
v -0.128428 0.940823 -0.070606
vn -1.0000 -0.0000 -0.0000
vn -0.0000 -0.0000 -1.0000
vn 1.0000 -0.0000 -0.0000
vn -0.0000 -0.0000 1.0000
vn -0.0000 1.0000 -0.0000
vn -0.0000 -1.0000 -0.0000
vt 0.375000 0.000000
vt 0.625000 0.000000
vt 0.625000 0.250000
vt 0.375000 0.250000
vt 0.625000 0.500000
vt 0.375000 0.500000
vt 0.625000 0.750000
vt 0.375000 0.750000
vt 0.625000 1.000000
vt 0.375000 1.000000
vt 0.875000 0.500000
vt 0.875000 0.750000
vt 0.125000 0.500000
vt 0.125000 0.750000
s 0
f 14/15/7 9/16/7 10/17/7 13/18/7
f 13/18/8 10/17/8 12/19/8 15/20/8
f 15/20/9 12/19/9 11/21/9 16/22/9
f 16/22/10 11/21/10 9/23/10 14/24/10
f 12/19/11 10/25/11 9/26/11 11/21/11
f 13/27/12 15/20/12 16/22/12 14/28/12
o 円錐
v 0.000000 0.511932 0.223786
v 0.092221 0.521014 0.223848
v 0.180899 0.547914 0.224032
v 0.262624 0.591596 0.224330
v 0.334257 0.650382 0.224732
v 0.393045 0.722014 0.225221
v 0.436728 0.803737 0.225779
v 0.463628 0.892413 0.226385
v 0.472711 0.984632 0.227015
v 0.463628 1.076851 0.227645
v 0.436728 1.165527 0.228250
v 0.393045 1.247250 0.228808
v 0.334257 1.318882 0.229298
v 0.262624 1.377668 0.229699
v 0.180899 1.421350 0.229998
v 0.092221 1.448250 0.230181
v 0.000000 1.457332 0.230243
v -0.092221 1.448250 0.230181
v -0.180899 1.421350 0.229998
v -0.262624 1.377668 0.229699
v -0.334257 1.318882 0.229298
v -0.393045 1.247250 0.228808
v -0.436728 1.165527 0.228250
v -0.463628 1.076851 0.227645
v -0.472711 0.984632 0.227015
v -0.463628 0.892413 0.226385
v -0.436728 0.803737 0.225779
v -0.393045 0.722014 0.225221
v -0.334257 0.650382 0.224732
v -0.262624 0.591596 0.224330
v -0.180899 0.547914 0.224032
v -0.092221 0.521014 0.223848
v 0.000000 0.991089 -0.718386
vn 0.0878 -0.8879 -0.4516
vn 0.2599 -0.8537 -0.4513
vn 0.4220 -0.7865 -0.4509
vn 0.5680 -0.6890 -0.4502
vn 0.6921 -0.5649 -0.4494
vn 0.7896 -0.4190 -0.4484
vn 0.8567 -0.2568 -0.4473
vn 0.8910 -0.0847 -0.4461
vn 0.8910 0.0908 -0.4449
vn 0.8567 0.2629 -0.4437
vn 0.7896 0.4251 -0.4426
vn 0.6921 0.5710 -0.4416
vn 0.5680 0.6951 -0.4408
vn 0.4220 0.7926 -0.4401
vn 0.2599 0.8598 -0.4396
vn 0.0878 0.8940 -0.4394
vn -0.0878 0.8940 -0.4394
vn -0.2599 0.8598 -0.4396
vn -0.4220 0.7926 -0.4401
vn -0.5680 0.6951 -0.4408
vn -0.6921 0.5710 -0.4416
vn -0.7896 0.4251 -0.4426
vn -0.8567 0.2629 -0.4437
vn -0.8910 0.0908 -0.4449
vn -0.8910 -0.0847 -0.4461
vn -0.8567 -0.2568 -0.4473
vn -0.7896 -0.4190 -0.4484
vn -0.6921 -0.5649 -0.4494
vn -0.5680 -0.6890 -0.4502
vn -0.4220 -0.7865 -0.4509
vn -0.0000 -0.0068 1.0000
vn -0.2599 -0.8537 -0.4513
vn -0.0878 -0.8879 -0.4516
vt 0.444110 0.409302
vt 0.250000 0.250000
vt 0.471459 0.368372
vt 0.490296 0.322893
vt 0.499900 0.274613
vt 0.499900 0.225387
vt 0.490297 0.177107
vt 0.471459 0.131628
vt 0.444110 0.090698
vt 0.409302 0.055890
vt 0.368372 0.028542
vt 0.322893 0.009704
vt 0.274613 0.000100
vt 0.225387 0.000100
vt 0.177107 0.009703
vt 0.131628 0.028541
vt 0.090698 0.055890
vt 0.055890 0.090698
vt 0.028541 0.131628
vt 0.009703 0.177107
vt 0.000100 0.225387
vt 0.000100 0.274613
vt 0.009703 0.322893
vt 0.028541 0.368372
vt 0.055890 0.409302
vt 0.090698 0.444110
vt 0.131628 0.471459
vt 0.177107 0.490297
vt 0.225387 0.499900
vt 0.274613 0.499900
vt 0.322893 0.490297
vt 0.368372 0.471459
vt 0.499900 0.725387
vt 0.225387 0.500100
vt 0.000100 0.774613
vt 0.409302 0.444110
vt 0.009703 0.822893
vt 0.028541 0.868372
vt 0.055890 0.909302
vt 0.090698 0.944110
vt 0.131628 0.971459
vt 0.177107 0.990297
vt 0.225387 0.999900
vt 0.274613 0.999900
vt 0.322893 0.990297
vt 0.368372 0.971458
vt 0.409302 0.944110
vt 0.444110 0.909302
vt 0.471458 0.868372
vt 0.490296 0.822893
vt 0.499900 0.774613
vt 0.490296 0.677107
vt 0.471458 0.631628
vt 0.444110 0.590698
vt 0.409302 0.555890
vt 0.368372 0.528541
vt 0.322893 0.509703
vt 0.274613 0.500100
vt 0.177107 0.509703
vt 0.131628 0.528541
vt 0.090698 0.555890
vt 0.055890 0.590698
vt 0.028541 0.631628
vt 0.009703 0.677107
vt 0.000100 0.725387
s 0
usemtl マテリアル.004
f 17/29/13 49/30/13 18/31/13
f 18/31/14 49/30/14 19/32/14
f 19/32/15 49/30/15 20/33/15
f 20/33/16 49/30/16 21/34/16
f 21/34/17 49/30/17 22/35/17
f 22/35/18 49/30/18 23/36/18
f 23/36/19 49/30/19 24/37/19
f 24/37/20 49/30/20 25/38/20
f 25/38/21 49/30/21 26/39/21
f 26/39/22 49/30/22 27/40/22
f 27/40/23 49/30/23 28/41/23
f 28/41/24 49/30/24 29/42/24
f 29/42/25 49/30/25 30/43/25
f 30/43/26 49/30/26 31/44/26
f 31/44/27 49/30/27 32/45/27
f 32/45/28 49/30/28 33/46/28
f 33/46/29 49/30/29 34/47/29
f 34/47/30 49/30/30 35/48/30
f 35/48/31 49/30/31 36/49/31
f 36/49/32 49/30/32 37/50/32
f 37/50/33 49/30/33 38/51/33
f 38/51/34 49/30/34 39/52/34
f 39/52/35 49/30/35 40/53/35
f 40/53/36 49/30/36 41/54/36
f 41/54/37 49/30/37 42/55/37
f 42/55/38 49/30/38 43/56/38
f 43/56/39 49/30/39 44/57/39
f 44/57/40 49/30/40 45/58/40
f 45/58/41 49/30/41 46/59/41
f 46/59/42 49/30/42 47/60/42
f 32/61/43 40/62/43 48/63/43
f 47/60/44 49/30/44 48/64/44
f 48/64/45 49/30/45 17/29/45
f 48/63/43 17/65/43 18/66/43
f 18/66/43 19/67/43 20/68/43
f 20/68/43 21/69/43 22/70/43
f 22/70/43 23/71/43 24/72/43
f 24/72/43 25/73/43 26/74/43
f 26/74/43 27/75/43 28/76/43
f 28/76/43 29/77/43 30/78/43
f 30/78/43 31/79/43 32/61/43
f 32/61/43 33/80/43 34/81/43
f 34/81/43 35/82/43 36/83/43
f 36/83/43 37/84/43 38/85/43
f 38/85/43 39/86/43 40/62/43
f 40/62/43 41/87/43 42/88/43
f 42/88/43 43/89/43 44/90/43
f 44/90/43 45/91/43 46/92/43
f 46/92/43 47/93/43 48/63/43
f 48/63/43 18/66/43 24/72/43
f 18/66/43 20/68/43 24/72/43
f 20/68/43 22/70/43 24/72/43
f 24/72/43 26/74/43 32/61/43
f 26/74/43 28/76/43 32/61/43
f 28/76/43 30/78/43 32/61/43
f 32/61/43 34/81/43 40/62/43
f 34/81/43 36/83/43 40/62/43
f 36/83/43 38/85/43 40/62/43
f 40/62/43 42/88/43 48/63/43
f 42/88/43 44/90/43 48/63/43
f 44/90/43 46/92/43 48/63/43
f 48/63/43 24/72/43 32/61/43
